<svg width="32" height="32" viewBox="0 0 32 32" fill="none" xmlns="http://www.w3.org/2000/svg">
  <!-- Background circle in rust color -->
  <circle cx="16" cy="16" r="16" fill="#B7410E"/>

  <!-- Ferret face -->
  <ellipse cx="16" cy="17" rx="10" ry="9" fill="#D2691E"/>

  <!-- Left ear -->
  <ellipse cx="8" cy="10" rx="4" ry="5" fill="#B7410E"/>
  <ellipse cx="8" cy="10" rx="2" ry="2.5" fill="#CD5C5C"/>

  <!-- Right ear -->
  <ellipse cx="24" cy="10" rx="4" ry="5" fill="#B7410E"/>
  <ellipse cx="24" cy="10" rx="2" ry="2.5" fill="#CD5C5C"/>

  <!-- Left eye -->
  <ellipse cx="12" cy="15" rx="2.5" ry="2" fill="#1a1a1a"/>
  <ellipse cx="12.5" cy="14.5" rx="1" ry="0.8" fill="#ffffff"/>

  <!-- Right eye -->
  <ellipse cx="20" cy="15" rx="2.5" ry="2" fill="#1a1a1a"/>
  <ellipse cx="20.5" cy="14.5" rx="1" ry="0.8" fill="#ffffff"/>

  <!-- Nose -->
  <ellipse cx="16" cy="21" rx="2.5" ry="2" fill="#1a1a1a"/>
  <ellipse cx="15.5" cy="20.5" rx="1" ry="0.8" fill="#4a4a4a"/>

  <!-- Whisker dots -->
  <circle cx="11" cy="20" r="0.7" fill="#8B4513"/>
  <circle cx="21" cy="20" r="0.7" fill="#8B4513"/>
  <circle cx="12" cy="22" r="0.7" fill="#8B4513"/>
  <circle cx="20" cy="22" r="0.7" fill="#8B4513"/>
</svg>
